<svg id="visual" viewBox="0 0 900 200" width="900" height="200" xmlns="http://www.w3.org/2000/svg" xmlns:xlink="http://www.w3.org/1999/xlink" version="1.1"><rect x="0" y="0" width="900" height="200" fill="#FFECD1"></rect><path d="M0 91L21.5 90.2C43 89.3 86 87.7 128.8 81.5C171.7 75.3 214.3 64.7 257.2 62.5C300 60.3 343 66.7 385.8 80.3C428.7 94 471.3 115 514.2 126.5C557 138 600 140 642.8 126.3C685.7 112.7 728.3 83.3 771.2 74.2C814 65 857 76 878.5 81.5L900 87L900 201L878.5 201C857 201 814 201 771.2 201C728.3 201 685.7 201 642.8 201C600 201 557 201 514.2 201C471.3 201 428.7 201 385.8 201C343 201 300 201 257.2 201C214.3 201 171.7 201 128.8 201C86 201 43 201 21.5 201L0 201Z" fill="#FF7D00" stroke-linecap="round" stroke-linejoin="miter"></path></svg>