<svg id="visual" viewBox="0 0 900 200" width="900" height="200" xmlns="http://www.w3.org/2000/svg" xmlns:xlink="http://www.w3.org/1999/xlink" version="1.1"><rect x="0" y="0" width="900" height="200" fill="#FFECD1"></rect><path d="M0 107L21.5 107.8C43 108.7 86 110.3 128.8 116.5C171.7 122.7 214.3 133.3 257.2 135.5C300 137.7 343 131.3 385.8 117.7C428.7 104 471.3 83 514.2 71.5C557 60 600 58 642.8 71.7C685.7 85.3 728.3 114.7 771.2 123.8C814 133 857 122 878.5 116.5L900 111L900 0L878.5 0C857 0 814 0 771.2 0C728.3 0 685.7 0 642.8 0C600 0 557 0 514.2 0C471.3 0 428.7 0 385.8 0C343 0 300 0 257.2 0C214.3 0 171.7 0 128.8 0C86 0 43 0 21.5 0L0 0Z" fill="#FF7D00" stroke-linecap="round" stroke-linejoin="miter"></path></svg>